<svg id="Layer_1" data-name="Layer 1" xmlns="http://www.w3.org/2000/svg" viewBox="0 0 460 61"><defs><style>.cls-1{fill:#f66;}.cls-2{fill:gray;}</style></defs><path class="cls-1" d="M332.76,13.52V46.21h-2.43V13.52Z"/><path d="M21.84,38.81l-4.45-7.64h-3v7.64H12V20.13h6a8.07,8.07,0,0,1,3.58.72,5.1,5.1,0,0,1,2.18,2A5.42,5.42,0,0,1,20.07,31l4.69,7.82Zm-7.4-9.59H18a4.12,4.12,0,0,0,3-1,3.5,3.5,0,0,0,1-2.61,3.37,3.37,0,0,0-1-2.58,4.29,4.29,0,0,0-3-.91H14.44Z"/><path d="M36.44,27.46A6.65,6.65,0,0,1,39,24.82a6.9,6.9,0,0,1,3.55-.94,6.48,6.48,0,0,1,3.35.84A5.51,5.51,0,0,1,48,26.8V24.12h2.46V38.81H48V36.08a5.89,5.89,0,0,1-2.16,2.13,6.5,6.5,0,0,1-3.34.84,6.72,6.72,0,0,1-3.54-1,6.87,6.87,0,0,1-2.49-2.71,8.38,8.38,0,0,1-.91-4A8.24,8.24,0,0,1,36.44,27.46ZM47.3,28.54a4.69,4.69,0,0,0-1.81-1.88A4.93,4.93,0,0,0,43,26a5,5,0,0,0-2.49.64,4.73,4.73,0,0,0-1.8,1.88,6.06,6.06,0,0,0-.67,2.9,6.18,6.18,0,0,0,.67,2.93A4.75,4.75,0,0,0,43,36.91a4.93,4.93,0,0,0,2.51-.66,4.74,4.74,0,0,0,1.81-1.9,6.63,6.63,0,0,0,0-5.81Z"/><path d="M61.53,27.46a6.57,6.57,0,0,1,2.53-2.64,8,8,0,0,1,8.17.37,6.22,6.22,0,0,1,2.32,3.65H71.92a3.76,3.76,0,0,0-1.46-2.12A4.55,4.55,0,0,0,67.77,26a4.35,4.35,0,0,0-3.38,1.43,5.92,5.92,0,0,0-1.28,4.06,6,6,0,0,0,1.28,4.1A4.3,4.3,0,0,0,67.77,37a4.56,4.56,0,0,0,2.68-.75,3.79,3.79,0,0,0,1.47-2.15h2.63a6.45,6.45,0,0,1-2.36,3.61,7.07,7.07,0,0,1-4.42,1.35,7.33,7.33,0,0,1-3.71-.93,6.49,6.49,0,0,1-2.53-2.66,8.4,8.4,0,0,1-.92-4A8.29,8.29,0,0,1,61.53,27.46Z"/><path d="M95.9,24.57A5,5,0,0,1,98,26.7a7.18,7.18,0,0,1,.76,3.45v8.66H96.35V30.5a4.69,4.69,0,0,0-1.1-3.36,3.91,3.91,0,0,0-3-1.17,4.05,4.05,0,0,0-3.07,1.21A4.93,4.93,0,0,0,88,30.69v8.12H85.61V19H88v7.24a4.94,4.94,0,0,1,2-1.75,6.49,6.49,0,0,1,2.86-.61A6.27,6.27,0,0,1,95.9,24.57Z"/><path d="M121.63,32.38H109.89A4.62,4.62,0,0,0,114.66,37a4.54,4.54,0,0,0,2.64-.74,3.91,3.91,0,0,0,1.49-2h2.62a6.32,6.32,0,0,1-2.35,3.45,7.16,7.16,0,0,1-4.4,1.32,7.49,7.49,0,0,1-3.74-.93,6.64,6.64,0,0,1-2.58-2.67,8.25,8.25,0,0,1-.94-4,8.33,8.33,0,0,1,.91-4,6.33,6.33,0,0,1,2.56-2.64,7.58,7.58,0,0,1,3.79-.93,7.46,7.46,0,0,1,3.7.91,6.37,6.37,0,0,1,2.48,2.51,7.4,7.4,0,0,1,.87,3.6C121.71,31.37,121.68,31.86,121.63,32.38ZM118.57,28a4,4,0,0,0-1.67-1.53,5.23,5.23,0,0,0-2.35-.52,4.52,4.52,0,0,0-3.15,1.18,4.78,4.78,0,0,0-1.48,3.26h9.27A4.5,4.5,0,0,0,118.57,28Z"/><path d="M135.91,19V38.81h-2.44V19Z"/><path d="M162.7,24.54a9,9,0,0,1,3.36-3.42,9.3,9.3,0,0,1,4.73-1.23,9.56,9.56,0,0,1,5.34,1.48,8.49,8.49,0,0,1,3.32,4.17h-2.92a6,6,0,0,0-2.24-2.6,6.54,6.54,0,0,0-3.5-.91,6.9,6.9,0,0,0-3.51.91,6.36,6.36,0,0,0-2.44,2.59,8.31,8.31,0,0,0-.88,3.93,8.25,8.25,0,0,0,.88,3.9,6.33,6.33,0,0,0,2.44,2.58,6.8,6.8,0,0,0,3.51.91,6.53,6.53,0,0,0,3.5-.89,5.87,5.87,0,0,0,2.24-2.59h2.92a8.41,8.41,0,0,1-3.32,4.14A9.63,9.63,0,0,1,170.79,39a9.39,9.39,0,0,1-4.73-1.22,8.83,8.83,0,0,1-3.36-3.39,9.74,9.74,0,0,1-1.23-4.9A9.87,9.87,0,0,1,162.7,24.54Z"/><path d="M191.81,19V38.81h-2.44V19Z"/><path d="M204.19,27.46a6.63,6.63,0,0,1,2.5-2.64,7,7,0,0,1,3.55-.94,6.43,6.43,0,0,1,3.35.84,5.44,5.44,0,0,1,2.12,2.08V24.12h2.47V38.81h-2.47V36.08a5.74,5.74,0,0,1-2.16,2.13,6.44,6.44,0,0,1-3.33.84,6.67,6.67,0,0,1-3.54-1,6.8,6.8,0,0,1-2.49-2.71,8.38,8.38,0,0,1-.91-4A8.24,8.24,0,0,1,204.19,27.46ZM215,28.54a4.62,4.62,0,0,0-1.81-1.88,4.89,4.89,0,0,0-2.5-.66,5.05,5.05,0,0,0-2.5.64,4.71,4.71,0,0,0-1.79,1.88,5.94,5.94,0,0,0-.67,2.9,6.07,6.07,0,0,0,.67,2.93,4.76,4.76,0,0,0,1.79,1.9,5.06,5.06,0,0,0,5,0,4.68,4.68,0,0,0,1.81-1.9,6.63,6.63,0,0,0,0-5.81Z"/><path d="M242.53,24.12l-8.85,21.61h-2.52l2.89-7.08-5.92-14.53h2.71L235.45,36,240,24.12Z"/><path d="M255.72,26.13v8.66a2,2,0,0,0,.45,1.51,2.25,2.25,0,0,0,1.59.45h1.79v2.06h-2.2a4.34,4.34,0,0,1-3.05-.94,4,4,0,0,1-1-3.08V26.13h-1.9v-2h1.9V20.43h2.44v3.69h3.83v2Z"/><path d="M271.76,38.12a6.69,6.69,0,0,1-2.63-2.67,8.14,8.14,0,0,1-.95-4,7.86,7.86,0,0,1,1-4,6.71,6.71,0,0,1,2.66-2.65,8.15,8.15,0,0,1,7.56,0,6.71,6.71,0,0,1,2.67,2.64,7.91,7.91,0,0,1,1,4,7.85,7.85,0,0,1-1,4,7,7,0,0,1-2.72,2.67,7.87,7.87,0,0,1-3.81.93A7.53,7.53,0,0,1,271.76,38.12Zm6.2-1.83a4.66,4.66,0,0,0,1.86-1.85,6,6,0,0,0,.71-3,5.94,5.94,0,0,0-.7-3A4.6,4.6,0,0,0,278,26.6a5.28,5.28,0,0,0-4.89,0,4.52,4.52,0,0,0-1.78,1.84,6.16,6.16,0,0,0-.67,3,6.47,6.47,0,0,0,.65,3,4.39,4.39,0,0,0,1.76,1.83,4.85,4.85,0,0,0,2.41.61A5.17,5.17,0,0,0,278,36.29Z"/><path d="M302.89,25.48a6.26,6.26,0,0,1,1.66,4.67v8.66h-2.41V30.5a4.74,4.74,0,0,0-1.1-3.36A3.92,3.92,0,0,0,298,26,4,4,0,0,0,295,27.18a4.93,4.93,0,0,0-1.14,3.51v8.12h-2.44V24.12h2.44v2.1a4.92,4.92,0,0,1,2-1.75,6.1,6.1,0,0,1,2.75-.61A6,6,0,0,1,302.89,25.48Z"/><path class="cls-2" d="M365.33,26.14a4.75,4.75,0,0,1,2.29-.53,5.1,5.1,0,0,1,2.77.78,5.4,5.4,0,0,1,2,2.22,8.18,8.18,0,0,1,0,6.71,5.49,5.49,0,0,1-2,2.25,5.1,5.1,0,0,1-2.77.78,4.68,4.68,0,0,1-2.28-.53,4.05,4.05,0,0,1-1.54-1.38v7.64H360V25.79h3.8v1.75A4.14,4.14,0,0,1,365.33,26.14Zm3.1,3.59a2.63,2.63,0,0,0-1.95-.81,2.56,2.56,0,0,0-1.92.82,3.13,3.13,0,0,0-.78,2.24,3.1,3.1,0,0,0,.78,2.24,2.65,2.65,0,0,0,3.86,0,3.1,3.1,0,0,0,.79-2.25A3.08,3.08,0,0,0,368.43,29.73Z"/><path class="cls-2" d="M387.68,26.24a4.28,4.28,0,0,1,2.22-.59v4h-1a3.27,3.27,0,0,0-2.14.61,2.74,2.74,0,0,0-.71,2.15v5.75h-3.79V25.79H386v2.06A5.13,5.13,0,0,1,387.68,26.24Z"/><path class="cls-2" d="M404,23.91a1.87,1.87,0,0,1-.64-1.45A1.92,1.92,0,0,1,404,21a2.52,2.52,0,0,1,3.24,0,1.94,1.94,0,0,1,.63,1.48,1.89,1.89,0,0,1-.63,1.45,2.52,2.52,0,0,1-3.24,0Zm3.52,1.88V38.18h-3.8V25.79Z"/><path class="cls-2" d="M430,27.07a5.5,5.5,0,0,1,1.29,3.87v7.24h-3.77V31.45a2.71,2.71,0,0,0-.64-1.93,2.53,2.53,0,0,0-3.47,0,2.71,2.71,0,0,0-.64,1.93v6.73h-3.8V25.79h3.8v1.64a4,4,0,0,1,1.55-1.3,5,5,0,0,1,2.2-.48A4.49,4.49,0,0,1,430,27.07Z"/><path class="cls-2" d="M450,35v3.22h-1.93a4.74,4.74,0,0,1-3.22-1,4.2,4.2,0,0,1-1.15-3.3V28.94h-1.52V25.79h1.52v-3h3.79v3H450v3.15h-2.49v5a1,1,0,0,0,.27.8,1.26,1.26,0,0,0,.89.25Z"/></svg>