<svg id="Layer_1" data-name="Layer 1" xmlns="http://www.w3.org/2000/svg" viewBox="0 0 1292.13 98.08"><defs><style>.cls-1{fill:#f66;}.cls-2{fill:gray;}</style></defs><path class="cls-1" d="M986.34,18.92V117H979V18.92Z" transform="translate(-33 -18.92)"/><path d="M1071.14,58.53a14.2,14.2,0,0,1,6.87-1.6,15.34,15.34,0,0,1,8.32,2.34,16,16,0,0,1,5.89,6.66,22.07,22.07,0,0,1,2.17,10,22.33,22.33,0,0,1-2.17,10.09,16.3,16.3,0,0,1-5.89,6.73,15.28,15.28,0,0,1-8.32,2.36,14.09,14.09,0,0,1-6.83-1.6,12.42,12.42,0,0,1-4.63-4.13v22.92h-11.39V57.47h11.39v5.26A12.43,12.43,0,0,1,1071.14,58.53Zm9.29,10.76a7.78,7.78,0,0,0-5.82-2.43,7.67,7.67,0,0,0-5.76,2.46,9.3,9.3,0,0,0-2.37,6.73,9.28,9.28,0,0,0,2.37,6.72,7.64,7.64,0,0,0,5.76,2.47,7.76,7.76,0,0,0,5.79-2.5,9.36,9.36,0,0,0,2.4-6.76A9.17,9.17,0,0,0,1080.43,69.29Z" transform="translate(-33 -18.92)"/><path d="M1138.19,58.83a12.9,12.9,0,0,1,6.66-1.76V69.12h-3.13q-4.28,0-6.4,1.83t-2.13,6.43V94.63H1121.8V57.47h11.39v6.19A15.06,15.06,0,0,1,1138.19,58.83Z" transform="translate(-33 -18.92)"/><path d="M1187,51.84a5.74,5.74,0,0,1-1.9-4.36,5.8,5.8,0,0,1,1.9-4.43,6.91,6.91,0,0,1,4.9-1.77,6.82,6.82,0,0,1,4.83,1.77,5.79,5.79,0,0,1,1.89,4.43,5.73,5.73,0,0,1-1.89,4.36,6.81,6.81,0,0,1-4.83,1.76A6.9,6.9,0,0,1,1187,51.84Zm10.56,5.63V94.63h-11.39V57.47Z" transform="translate(-33 -18.92)"/><path d="M1265,61.3q3.9,4.23,3.89,11.62V94.63h-11.32V74.45a8.13,8.13,0,0,0-1.93-5.79,7.55,7.55,0,0,0-10.39,0,8.13,8.13,0,0,0-1.93,5.79V94.63h-11.39V57.47h11.39V62.4a12,12,0,0,1,4.66-3.9,14.76,14.76,0,0,1,6.59-1.43A13.51,13.51,0,0,1,1265,61.3Z" transform="translate(-33 -18.92)"/><path d="M1325.13,85v9.66h-5.79q-6.19,0-9.66-3t-3.46-9.89V66.92h-4.53V57.47h4.53V48.41h11.39v9.06h7.46v9.45h-7.46V81.84a3.14,3.14,0,0,0,.8,2.4,3.88,3.88,0,0,0,2.66.73Z" transform="translate(-33 -18.92)"/><path class="cls-2" d="M62.51,94.63,49.16,71.72H40.32V94.63H33v-56H51.09a24.11,24.11,0,0,1,10.73,2.17,15.15,15.15,0,0,1,6.56,5.87,16.45,16.45,0,0,1,2.16,8.45,16.48,16.48,0,0,1-3.33,10.2q-3.34,4.43-10,5.87L71.27,94.63ZM40.32,65.85H51.09c4,0,6.94-1,8.92-2.93a10.53,10.53,0,0,0,3-7.84q0-5-2.94-7.72c-1.95-1.82-4.94-2.74-9-2.74H40.32Z" transform="translate(-33 -18.92)"/><path class="cls-2" d="M106.32,60.58a19.91,19.91,0,0,1,7.51-7.92,20.69,20.69,0,0,1,10.66-2.82,19.56,19.56,0,0,1,10,2.5,16.63,16.63,0,0,1,6.35,6.27v-8h7.39V94.63h-7.39v-8.2a17.24,17.24,0,0,1-6.47,6.38,19.37,19.37,0,0,1-10,2.54,19.94,19.94,0,0,1-10.61-2.9,20.24,20.24,0,0,1-7.48-8.11,25.31,25.31,0,0,1-2.73-11.9A24.8,24.8,0,0,1,106.32,60.58Zm32.56,3.25a14.18,14.18,0,0,0-5.43-5.66,15.38,15.38,0,0,0-15,0,14.05,14.05,0,0,0-5.39,5.62,18,18,0,0,0-2,8.69,18.3,18.3,0,0,0,2,8.8A14.23,14.23,0,0,0,118.46,87a14.58,14.58,0,0,0,7.47,2,14.81,14.81,0,0,0,7.52-2,14.12,14.12,0,0,0,5.43-5.71,18.14,18.14,0,0,0,2-8.72A18,18,0,0,0,138.88,63.83Z" transform="translate(-33 -18.92)"/><path class="cls-2" d="M181.56,60.58a19.79,19.79,0,0,1,7.6-7.92,21.93,21.93,0,0,1,11.14-2.82c5.41,0,9.87,1.33,13.38,3.94a18.66,18.66,0,0,1,7,10.94h-7.88a11.33,11.33,0,0,0-4.38-6.35A13.56,13.56,0,0,0,200.3,56a13,13,0,0,0-10.13,4.3c-2.57,2.86-3.86,6.93-3.86,12.18s1.29,9.41,3.86,12.3a12.91,12.91,0,0,0,10.13,4.34,13.71,13.71,0,0,0,8-2.25,11.48,11.48,0,0,0,4.42-6.43h7.88a19.35,19.35,0,0,1-7.08,10.81q-5.31,4.06-13.26,4.06a21.93,21.93,0,0,1-11.14-2.81,19.71,19.71,0,0,1-7.6-8,25.37,25.37,0,0,1-2.73-12.06A25,25,0,0,1,181.56,60.58Z" transform="translate(-33 -18.92)"/><path class="cls-2" d="M284.67,51.9A15.08,15.08,0,0,1,291,58.29a21.62,21.62,0,0,1,2.29,10.37v26H286V69.71q0-6.6-3.3-10.09t-9-3.5a12.08,12.08,0,0,0-9.21,3.62c-2.28,2.4-3.41,5.92-3.41,10.53V94.63H253.8V35.14h7.32v21.7a14.36,14.36,0,0,1,6-5.22,19.32,19.32,0,0,1,8.57-1.85A18.92,18.92,0,0,1,284.67,51.9Z" transform="translate(-33 -18.92)"/><path class="cls-2" d="M361.86,75.33H326.65q.39,6.53,4.46,10.17A14.18,14.18,0,0,0,341,89.16,13.57,13.57,0,0,0,348.88,87,11.8,11.8,0,0,0,353.34,81h7.88a19,19,0,0,1-7.08,10.34,21.36,21.36,0,0,1-13.18,4,22.36,22.36,0,0,1-11.22-2.81,20.06,20.06,0,0,1-7.76-8,24.9,24.9,0,0,1-2.81-12,25.21,25.21,0,0,1,2.73-12,19.23,19.23,0,0,1,7.68-7.92A22.87,22.87,0,0,1,341,49.84a22.13,22.13,0,0,1,11.09,2.74,19,19,0,0,1,7.44,7.52,22.19,22.19,0,0,1,2.61,10.81A43.22,43.22,0,0,1,361.86,75.33Zm-9.17-13.14a12,12,0,0,0-5-4.59,15.73,15.73,0,0,0-7-1.56,13.56,13.56,0,0,0-9.45,3.54,14.37,14.37,0,0,0-4.46,9.8h27.81A13.4,13.4,0,0,0,352.69,62.19Z" transform="translate(-33 -18.92)"/><path class="cls-2" d="M404.69,35.14V94.63h-7.31V35.14Z" transform="translate(-33 -18.92)"/><path class="cls-2" d="M485.06,51.82a26.78,26.78,0,0,1,10.09-10.25,27.77,27.77,0,0,1,14.19-3.7,28.79,28.79,0,0,1,16,4.42,25.37,25.37,0,0,1,10,12.54h-8.76a17.6,17.6,0,0,0-6.71-7.8,19.44,19.44,0,0,0-10.49-2.73A20.41,20.41,0,0,0,498.81,47a19.18,19.18,0,0,0-7.32,7.76,24.88,24.88,0,0,0-2.65,11.78,24.64,24.64,0,0,0,2.65,11.69A19.11,19.11,0,0,0,498.81,86a20.32,20.32,0,0,0,10.53,2.74,19.61,19.61,0,0,0,10.49-2.7,17.28,17.28,0,0,0,6.71-7.76h8.76a25.18,25.18,0,0,1-10,12.43,29,29,0,0,1-16,4.37,28,28,0,0,1-14.19-3.65,26.64,26.64,0,0,1-10.09-10.17,29.2,29.2,0,0,1-3.7-14.71A29.43,29.43,0,0,1,485.06,51.82Z" transform="translate(-33 -18.92)"/><path class="cls-2" d="M572.39,35.14V94.63h-7.32V35.14Z" transform="translate(-33 -18.92)"/><path class="cls-2" d="M609.52,60.58A19.85,19.85,0,0,1,617,52.66a20.71,20.71,0,0,1,10.65-2.82,19.56,19.56,0,0,1,10.05,2.5,16.66,16.66,0,0,1,6.36,6.27v-8h7.4V94.63h-7.4v-8.2a17.24,17.24,0,0,1-6.47,6.38,19.37,19.37,0,0,1-10,2.54A20,20,0,0,1,617,92.45a20.28,20.28,0,0,1-7.47-8.11,25.19,25.19,0,0,1-2.74-11.9A24.69,24.69,0,0,1,609.52,60.58Zm32.56,3.25a14.25,14.25,0,0,0-5.43-5.66,15.4,15.4,0,0,0-15,0,14,14,0,0,0-5.38,5.62,18,18,0,0,0-2,8.69,18.3,18.3,0,0,0,2,8.8A14.21,14.21,0,0,0,621.65,87a14.63,14.63,0,0,0,7.49,2,14.83,14.83,0,0,0,7.51-2,14.19,14.19,0,0,0,5.43-5.71,18.25,18.25,0,0,0,2-8.72A18.07,18.07,0,0,0,642.08,63.83Z" transform="translate(-33 -18.92)"/><path class="cls-2" d="M724.52,50.57,698,115.37h-7.55l8.68-21.22L681.35,50.57h8.12l13.83,35.7L717,50.57Z" transform="translate(-33 -18.92)"/><path class="cls-2" d="M764.1,56.6v26c0,2.15.45,3.66,1.36,4.54s2.5,1.33,4.75,1.33h5.39v6.19H769c-4.08,0-7.12-.94-9.17-2.82s-3-5-3-9.24v-26h-5.72v-6h5.72V39.48h7.31V50.57h11.5v6Z" transform="translate(-33 -18.92)"/><path class="cls-2" d="M812.2,92.54a20.09,20.09,0,0,1-7.88-8,24.58,24.58,0,0,1-2.85-12,23.7,23.7,0,0,1,2.94-11.94,20.19,20.19,0,0,1,8-8,24.52,24.52,0,0,1,22.68,0,20.28,20.28,0,0,1,8,7.92,23.74,23.74,0,0,1,2.93,12,23.5,23.5,0,0,1-3,12,21,21,0,0,1-8.16,8,23.47,23.47,0,0,1-11.41,2.81A22.6,22.6,0,0,1,812.2,92.54Zm18.61-5.47a14.06,14.06,0,0,0,5.59-5.55,17.76,17.76,0,0,0,2.13-9,18,18,0,0,0-2.09-9A13.68,13.68,0,0,0,831,58a15.77,15.77,0,0,0-14.67,0A13.22,13.22,0,0,0,811,63.52a18.48,18.48,0,0,0-2,9,19.14,19.14,0,0,0,2,9.08,13.07,13.07,0,0,0,5.27,5.51,14.87,14.87,0,0,0,7.24,1.81A15.46,15.46,0,0,0,830.81,87.07Z" transform="translate(-33 -18.92)"/><path class="cls-2" d="M905.59,54.63q5,4.88,5,14v26h-7.23V69.71q0-6.6-3.3-10.09c-2.19-2.34-5.2-3.5-9-3.5a12,12,0,0,0-9.2,3.62c-2.28,2.4-3.42,5.92-3.42,10.53V94.63H871.1V50.57h7.32v6.27a14.51,14.51,0,0,1,5.9-5.22,18.27,18.27,0,0,1,8.25-1.85Q900.59,49.77,905.59,54.63Z" transform="translate(-33 -18.92)"/></svg>