<svg id="Layer_1" data-name="Layer 1" xmlns="http://www.w3.org/2000/svg" viewBox="0 0 1041.69 138.14"><defs><style>.cls-1{fill:#f66;}.cls-2{fill:gray;}</style></defs><path class="cls-1" d="M754.73,27.44v75.9h-5.66V27.44Z"/><path d="M823.45,53.45a11,11,0,0,1,5.31-1.24A11.92,11.92,0,0,1,835.2,54a12.4,12.4,0,0,1,4.56,5.15A17.17,17.17,0,0,1,841.44,67a17.3,17.3,0,0,1-1.68,7.81A12.57,12.57,0,0,1,835.2,80a11.77,11.77,0,0,1-6.44,1.83,10.9,10.9,0,0,1-5.28-1.24,9.6,9.6,0,0,1-3.58-3.19V95.1h-8.82V52.63h8.82V56.7A9.55,9.55,0,0,1,823.45,53.45Zm7.19,8.33a6,6,0,0,0-4.51-1.88,5.91,5.91,0,0,0-4.45,1.9A7.18,7.18,0,0,0,819.84,67a7.15,7.15,0,0,0,1.84,5.2,5.92,5.92,0,0,0,4.45,1.91,6,6,0,0,0,4.49-1.93A7.27,7.27,0,0,0,832.47,67,7.1,7.1,0,0,0,830.64,61.78Z"/><path d="M875.33,53.68a10.07,10.07,0,0,1,5.16-1.36v9.33h-2.43a7.4,7.4,0,0,0-4.95,1.42c-1.1.94-1.64,2.6-1.64,5V81.39h-8.82V52.63h8.82v4.79A11.77,11.77,0,0,1,875.33,53.68Z"/><path d="M913.12,48.27a4.41,4.41,0,0,1-1.47-3.37,4.48,4.48,0,0,1,1.47-3.43,5.33,5.33,0,0,1,3.78-1.36,5.27,5.27,0,0,1,3.74,1.36,4.48,4.48,0,0,1,1.47,3.43,4.41,4.41,0,0,1-1.47,3.37,5.27,5.27,0,0,1-3.74,1.37A5.34,5.34,0,0,1,913.12,48.27Zm8.17,4.36V81.39h-8.82V52.63Z"/><path d="M973.47,55.59q3,3.27,3,9v16.8h-8.77V65.77a6.28,6.28,0,0,0-1.49-4.48,5.85,5.85,0,0,0-8,0,6.28,6.28,0,0,0-1.49,4.48V81.39h-8.82V52.63h8.82v3.81a9.27,9.27,0,0,1,3.6-3,11.51,11.51,0,0,1,5.11-1.11A10.44,10.44,0,0,1,973.47,55.59Z"/><path d="M1020,73.91v7.48h-4.48c-3.2,0-5.69-.79-7.48-2.35s-2.68-4.11-2.68-7.65V60h-3.5V52.63h3.5v-7h8.82v7H1020V60h-5.77V71.49a2.4,2.4,0,0,0,.62,1.86,3,3,0,0,0,2.06.56Z"/><path class="cls-2" d="M39.83,86,29.5,68.3H22.66V86H17V42.66H31a18.57,18.57,0,0,1,8.3,1.69,11.62,11.62,0,0,1,5.07,4.54,12.56,12.56,0,0,1-8.65,19L46.61,86ZM22.66,63.76H31c3.06,0,5.37-.76,6.9-2.27a8.13,8.13,0,0,0,2.3-6.07,7.73,7.73,0,0,0-2.27-6Q35.67,47.33,31,47.33H22.66Z"/><path class="cls-2" d="M73.73,59.68a15.42,15.42,0,0,1,5.82-6.13,16,16,0,0,1,8.24-2.18,15.1,15.1,0,0,1,7.78,1.94,12.72,12.72,0,0,1,4.91,4.85V51.93h5.73V86h-5.73V79.68a13.28,13.28,0,0,1-5,4.95,15.05,15.05,0,0,1-7.75,2,15.45,15.45,0,0,1-8.21-2.24,15.73,15.73,0,0,1-5.79-6.29,19.53,19.53,0,0,1-2.11-9.2A19.19,19.19,0,0,1,73.73,59.68Zm25.2,2.52a11,11,0,0,0-4.2-4.39,11.93,11.93,0,0,0-11.6,0A10.9,10.9,0,0,0,79,62.14a13.84,13.84,0,0,0-1.56,6.72A14.15,14.15,0,0,0,79,75.67a11.06,11.06,0,0,0,4.17,4.42,11.32,11.32,0,0,0,5.78,1.52,11.49,11.49,0,0,0,5.82-1.52,11,11,0,0,0,4.2-4.42,14,14,0,0,0,1.55-6.75A13.84,13.84,0,0,0,98.93,62.2Z"/><path class="cls-2" d="M132,59.68a15.3,15.3,0,0,1,5.88-6.13,18.66,18.66,0,0,1,19,.87,14.45,14.45,0,0,1,5.38,8.47h-6.1A8.73,8.73,0,0,0,152.71,58a10.47,10.47,0,0,0-6.25-1.8,10,10,0,0,0-7.84,3.32q-3,3.33-3,9.43t3,9.52a10,10,0,0,0,7.84,3.36,10.59,10.59,0,0,0,6.22-1.74,8.87,8.87,0,0,0,3.42-5h6.1a15,15,0,0,1-5.48,8.37,16.39,16.39,0,0,1-10.26,3.14,16.91,16.91,0,0,1-8.62-2.18A15.12,15.12,0,0,1,132,78.25a19.61,19.61,0,0,1-2.11-9.33A19.33,19.33,0,0,1,132,59.68Z"/><path class="cls-2" d="M211.75,53a11.71,11.71,0,0,1,4.88,4.95,16.65,16.65,0,0,1,1.78,8V86h-5.6V66.74q0-5.1-2.55-7.8a9.11,9.11,0,0,0-7-2.71,9.34,9.34,0,0,0-7.13,2.8q-2.64,2.79-2.64,8.15V86h-5.66V40h5.66v16.8a11.24,11.24,0,0,1,4.64-4,15,15,0,0,1,6.62-1.43A14.64,14.64,0,0,1,211.75,53Z"/><path class="cls-2" d="M271.48,71.1H244.23a10.73,10.73,0,0,0,11.08,10.7,10.5,10.5,0,0,0,6.13-1.71,9.18,9.18,0,0,0,3.45-4.58H271a14.61,14.61,0,0,1-5.47,8,16.55,16.55,0,0,1-10.2,3.08,17.24,17.24,0,0,1-8.68-2.18,15.51,15.51,0,0,1-6-6.19,19.24,19.24,0,0,1-2.17-9.3,19.48,19.48,0,0,1,2.11-9.27,14.82,14.82,0,0,1,5.94-6.13,17.72,17.72,0,0,1,8.81-2.15,17.11,17.11,0,0,1,8.58,2.12,14.66,14.66,0,0,1,5.76,5.82,17.26,17.26,0,0,1,2,8.36A32.08,32.08,0,0,1,271.48,71.1Zm-7.09-10.17a9.26,9.26,0,0,0-3.89-3.55,12.1,12.1,0,0,0-5.44-1.21,10.47,10.47,0,0,0-7.31,2.74,11.09,11.09,0,0,0-3.45,7.58h21.52A10.43,10.43,0,0,0,264.39,60.93Z"/><path class="cls-2" d="M304.63,40V86H299V40Z"/><path class="cls-2" d="M366.82,52.9A20.8,20.8,0,0,1,374.63,45a21.47,21.47,0,0,1,11-2.86A22.29,22.29,0,0,1,398,45.53a19.62,19.62,0,0,1,7.71,9.7h-6.78a13.55,13.55,0,0,0-5.2-6,15,15,0,0,0-8.11-2.12,15.8,15.8,0,0,0-8.15,2.12,14.71,14.71,0,0,0-5.66,6,19.22,19.22,0,0,0-2.06,9.11,19.13,19.13,0,0,0,2.06,9.06,14.71,14.71,0,0,0,5.66,6,15.8,15.8,0,0,0,8.15,2.12,15.17,15.17,0,0,0,8.11-2.09,13.37,13.37,0,0,0,5.2-6h6.78A19.48,19.48,0,0,1,398,83a22.44,22.44,0,0,1-12.38,3.39,21.64,21.64,0,0,1-11-2.83,20.64,20.64,0,0,1-7.81-7.87A22.62,22.62,0,0,1,364,64.31,22.8,22.8,0,0,1,366.82,52.9Z"/><path class="cls-2" d="M434.4,40V86h-5.66V40Z"/><path class="cls-2" d="M463.13,59.68A15.42,15.42,0,0,1,469,53.55a16,16,0,0,1,8.24-2.18A15,15,0,0,1,485,53.31a12.81,12.81,0,0,1,4.92,4.85V51.93h5.73V86h-5.73V79.68a13.38,13.38,0,0,1-5,4.95,15,15,0,0,1-7.74,2,15.45,15.45,0,0,1-8.21-2.24,15.73,15.73,0,0,1-5.79-6.29,19.53,19.53,0,0,1-2.12-9.2A19.2,19.2,0,0,1,463.13,59.68Zm25.2,2.52a11,11,0,0,0-4.21-4.39,11.93,11.93,0,0,0-11.6,0,10.81,10.81,0,0,0-4.16,4.36,13.84,13.84,0,0,0-1.56,6.72,14.15,14.15,0,0,0,1.56,6.81,11,11,0,0,0,4.16,4.42,11.35,11.35,0,0,0,5.79,1.52,11.48,11.48,0,0,0,5.81-1.52,11,11,0,0,0,4.21-4.42,14.13,14.13,0,0,0,1.55-6.75A14,14,0,0,0,488.33,62.2Z"/><path class="cls-2" d="M552.13,51.93l-20.54,50.15h-5.84l6.71-16.42L518.72,51.93H525l10.7,27.63,10.57-27.63Z"/><path class="cls-2" d="M582.75,56.6V76.7a4.74,4.74,0,0,0,1.06,3.51,5.24,5.24,0,0,0,3.67,1h4.17V86h-5.1c-3.16,0-5.52-.73-7.1-2.18s-2.36-3.83-2.36-7.15V56.6h-4.42V51.93h4.42V43.35h5.66v8.58h8.9V56.6Z"/><path class="cls-2" d="M620,84.41a15.53,15.53,0,0,1-6.1-6.19,18.92,18.92,0,0,1-2.21-9.3,18.4,18.4,0,0,1,2.27-9.24,15.61,15.61,0,0,1,6.19-6.16,19,19,0,0,1,17.55,0,15.63,15.63,0,0,1,6.18,6.13,18.33,18.33,0,0,1,2.27,9.27,18.14,18.14,0,0,1-2.33,9.3,16.24,16.24,0,0,1-6.31,6.19,18.14,18.14,0,0,1-8.83,2.18A17.46,17.46,0,0,1,620,84.41Zm14.4-4.23a10.86,10.86,0,0,0,4.32-4.29,13.77,13.77,0,0,0,1.65-7,14,14,0,0,0-1.62-7,10.64,10.64,0,0,0-4.23-4.26,12.2,12.2,0,0,0-11.35,0A10.32,10.32,0,0,0,619,62a14.39,14.39,0,0,0-1.55,7A14.79,14.79,0,0,0,619,76a10.13,10.13,0,0,0,4.08,4.26,11.46,11.46,0,0,0,5.6,1.4A12,12,0,0,0,634.38,80.18Z"/><path class="cls-2" d="M692.24,55.08q3.85,3.77,3.86,10.85V86h-5.6V66.74q0-5.1-2.55-7.8a9.09,9.09,0,0,0-7-2.71,9.32,9.32,0,0,0-7.12,2.8q-2.64,2.79-2.64,8.15V86h-5.67V51.93h5.67v4.86a11.23,11.23,0,0,1,4.57-4,14.23,14.23,0,0,1,6.38-1.43A13.81,13.81,0,0,1,692.24,55.08Z"/></svg>